<?xml version="1.0" encoding="utf-8"?>
<!-- Generator: Adobe Illustrator 22.1.0, SVG Export Plug-In . SVG Version: 6.00 Build 0)  -->
<svg version="1.1" id="Слой_1" xmlns="http://www.w3.org/2000/svg" xmlns:xlink="http://www.w3.org/1999/xlink" x="0px" y="0px"
	 viewBox="0 0 455 277.4" style="enable-background:new 0 0 455 277.4;" xml:space="preserve">
<g>
	<g>
		<path d="M0.1,6.1c8,22.7,12.2,46.6,12.3,70.7c0,12.1-1,24.2-3,36.1c-1.1,6.3-3.9,15,5.6,14C32,125,46.2,111.5,52.4,96
			c7.6-19.4,4.2-42.3-4.5-60.8c-4.5-9.6-11.2-18-19.7-24.4C23.9,7.7,19.3,5.1,14.4,3C11.1,1.6,5.6-1.4,2.1,0.7
			C1.5,1,1.3,1.7,1.4,2.4c0.3,1.2,0.7,1.5,1.9,1.9C4,4.6,4.6,4.2,5,3.7c0.1-0.1,0.2-0.3,0.3-0.4c1.1-1.6-1.5-3.1-2.6-1.5
			C2.6,1.9,2.5,2,2.4,2.1C3,1.9,3.5,1.7,4.1,1.4c0.1,0,0.1,0.1,0.2,0.1C4.1,2.2,3.9,2.7,3.6,3.3c2.7-1.6,10.9,3,13.1,4.1
			c4.3,2.1,8.3,4.7,12,7.8C35.6,20.8,41,28,44.9,36c8.5,17.4,11.9,39.1,5.2,57.6c-2.8,7.8-7.6,14.9-13.9,20.4
			c-3,2.6-6.3,4.8-9.9,6.5c-3.1,1.5-9.4,4.4-13,3.6c-4.6-1.1-1-10.7-0.5-13.9c0.7-4.7,1.3-9.4,1.7-14.1c0.8-9.4,1-19,0.6-28.4
			C14.2,46.4,10,25.4,3,5.3C2.3,3.5-0.5,4.3,0.1,6.1L0.1,6.1z"/>
	</g>
</g>
<g>
	<g>
		<path d="M80.1,55.9c-12.4,3-17.1,20-17.5,31c-0.5,12,2.5,29.6,13.8,36.3c10.1,6,23.1,0.5,29.4-8.4c8-11.3,8.9-28.8,5.2-41.8
			C107.4,60.2,94.8,49,80.9,54.8c-1.8,0.7-0.2,3.3,1.5,2.6c7.2-3.1,15.5,0.1,20.4,5.9c5,5.9,6.6,14,7,21.6
			c0.6,13.7-2.5,31.2-17,36.6c-16.5,6.1-24.3-10.4-26.5-24c-1.1-6.9-0.9-14.1,0.9-20.8c1.9-6.9,6.1-16,13.7-17.8
			C82.8,58.4,82,55.5,80.1,55.9L80.1,55.9z"/>
	</g>
</g>
<g>
	<g>
		<path d="M116.5,56c5,22.3,8.6,44.8,10.9,67.5c0.1,1.4,2,2.2,2.8,0.8c6.3-11.4,11.6-23.3,16.2-35.5c-0.8,0.2-1.7,0.4-2.5,0.7
			c6.6,7.7,12.1,16.2,16.3,25.3c0.5,1.1,2.6,0.9,2.7-0.4c3.1-20.4,6.7-40.8,10.9-61c0.4-1.9-2.4-2.7-2.9-0.8
			c-0.3,0.9-0.5,1.8-0.8,2.7c-0.5,1.9,2.4,2.7,2.9,0.8c0.3-0.9,0.5-1.8,0.8-2.7c-1-0.3-1.9-0.5-2.9-0.8c-4.2,20.2-7.8,40.6-10.9,61
			c0.9-0.1,1.8-0.2,2.7-0.4c-4.4-9.4-10-18.1-16.8-26c-0.8-0.9-2.1-0.3-2.5,0.7c-4.4,12-9.7,23.6-15.9,34.8c0.9,0.3,1.9,0.5,2.8,0.8
			c-2.3-23-6-45.8-11-68.3C118.9,53.3,116,54.1,116.5,56L116.5,56z"/>
	</g>
</g>
<g>
	<g>
		<path d="M181.6,61.4c1.3,20.6,0.5,41.3-2.7,61.8c1,0.1,2,0.3,2.9,0.4c1.1-11,2.7-22,4.9-32.9c1.8-8.6,4.2-24.6,16.1-24.2
			c13,0.4,9.8,20.7,9.5,28.9c-0.5,11.3-0.9,22.5-1.4,33.8c-0.1,1.2,1.7,2,2.6,1.1c1.8-2.1,1.8-4.4,0.1-6.6c-1.2-1.5-3.3,0.6-2.1,2.1
			c0,0.8,0,1.6-0.1,2.3c0.9,0.4,1.7,0.7,2.6,1.1c0.6-14.8,1.4-29.5,1.8-44.3c0.2-8.6-1.9-21.2-12.9-21.4
			c-10.6-0.3-15.4,10.8-17.5,19.4c-3.2,13.4-5.2,27-6.5,40.7c-0.2,1.7,2.7,2.1,2.9,0.4c3.2-20.7,4.1-41.6,2.8-62.5
			C184.5,59.4,181.5,59.4,181.6,61.4L181.6,61.4z"/>
	</g>
</g>
<g>
	<g>
		<path d="M93.7,161c3.5,17.3,7.1,34.6,10.6,51.9c0.3,1.5,2.6,1.4,2.9,0c2.4-9.9,5.3-19.6,8.9-29.2c-1,0-1.9,0-2.9,0
			c2.3,6.7,4.7,13.5,7,20.2c0.6,1.6,2.8,1.3,2.9-0.4c1.5-16,4.5-31.7,8.9-47.1c0.5-1.6-1.9-2.7-2.7-1.2c-0.7,1.2-1.3,2.5-2,3.7
			c-0.9,1.7,1.7,3.2,2.6,1.5c0.7-1.2,1.3-2.5,2-3.7c-0.9-0.4-1.8-0.8-2.7-1.2c-4.5,15.7-7.5,31.7-9,47.9c1-0.1,2-0.3,2.9-0.4
			c-2.3-6.7-4.7-13.5-7-20.2c-0.5-1.4-2.4-1.4-2.9,0c-3.5,9.6-6.5,19.3-8.9,29.2c1,0,1.9,0,2.9,0c-3.5-17.3-7.1-34.6-10.6-51.9
			C96.2,158.3,93.3,159.1,93.7,161L93.7,161z"/>
	</g>
</g>
<g>
	<g>
		<path d="M149.2,160.1c1.9,13.6,3.9,27.2,5.8,40.8c1-0.3,1.9-0.5,2.9-0.8c-1-2.9-2-5.8-3-8.8c-0.6-1.8-3.5-1-2.9,0.8
			c1,2.9,2,5.8,3,8.8c0.6,1.9,3.2,1.1,2.9-0.8c-1.9-13.6-3.9-27.2-5.8-40.8C151.8,157.4,148.9,158.2,149.2,160.1L149.2,160.1z"/>
	</g>
</g>
<g>
	<g>
		<path d="M140.3,137.6c-4.3,1.1-4.7,8.2-0.4,9.6c4.6,1.5,8.2-5.3,4.8-8.5c-0.5-0.4-1.2-0.6-1.8-0.2c-2.7,1.7-2.1,6,1,6.9
			c0.6,0.2,1.4-0.1,1.7-0.7c1.1-2.3,0.7-5-1.1-6.8c-0.7-0.7-1.8-0.5-2.4,0.3c-1,1.5-1.2,3.2-0.9,4.9c0.4,1.9,3.3,1.1,2.9-0.8
			c-0.2-1,0-1.8,0.6-2.6c-0.8,0.1-1.6,0.2-2.4,0.3c0.8,0.8,1.2,2.1,0.7,3.2c0.6-0.2,1.1-0.5,1.7-0.7c-0.5-0.2-0.7-1.1-0.2-1.4
			c-0.6-0.1-1.2-0.2-1.8-0.2c1.2,1.1-0.1,4.3-1.8,3.5c-1.4-0.7-1.1-3.4,0.4-3.8C143,140,142.2,137.1,140.3,137.6L140.3,137.6z"/>
	</g>
</g>
<g>
	<g>
		<path d="M169.6,136.7c0.9,9.3,1.7,18.6,2.6,27.8c0.4,4.6,0.9,9.3,1.3,13.9c0.3,3.2,0.2,6.7,1.2,9.8c3.3,9.8,18.7,0.9,15.4-6.3
			c-0.8-1.8-3.4-0.2-2.6,1.5c1,2.2-4.5,6-6.1,6.2c-5,0.6-4.5-6.5-4.8-9.2c-0.4-4.6-0.9-9.3-1.3-13.9c-0.9-9.9-1.8-19.9-2.7-29.8
			C172.4,134.8,169.4,134.8,169.6,136.7L169.6,136.7z"/>
	</g>
</g>
<g>
	<g>
		<path d="M165.2,173.1c0.9,0.9,1.9,1.1,3.1,0.5c0.6-0.1,1.2-0.2,1.8-0.3c2.1-0.4,4.2-0.7,6.4-1.1c3.9-0.7,7.9-1.4,11.8-2
			c1.9-0.3,1.1-3.2-0.8-2.9c-4.2,0.7-8.5,1.5-12.7,2.2c-2.8,0.5-8.1,0.4-10.5,2c-2.1,1.4-2.1,4.8,1,4.7
			C167.1,176.1,167.1,173.1,165.2,173.1L165.2,173.1z"/>
	</g>
</g>
<g>
	<g>
		<path d="M192,140.1c5.3,19.3,7.3,39.2,6,59.2c-0.1,1.8,2.4,1.9,2.9,0.4c3-9.2,5.8-18.6,9-27.8c1.1-3,3.1-6.6,4.9-1.5
			c0.6,1.7,1.1,3.5,1.4,5.3c1.1,5.3,1.1,10.6,0.5,15.9c-0.2,1.9,2.8,1.9,3,0c0.9-6.8,0.5-13.7-1.5-20.3c-0.9-3-2.4-8.5-6.7-7.1
			c-4.1,1.3-5,8.2-6.1,11.5c-2.5,7.7-5,15.4-7.5,23.1c1,0.1,2,0.3,2.9,0.4c1.3-20.2-0.8-40.4-6.1-60
			C194.4,137.5,191.5,138.3,192,140.1L192,140.1z"/>
	</g>
</g>
<g>
	<g>
		<path d="M263,126.7c0.1-1,0.2-2,0.3-3c-1,0-2,0-3,0c0.3,10.9,0.6,21.7,0.9,32.6c0.1,5.6,0.3,11.2,0.4,16.8c0.1,4.4-0.2,9.1,1,13.3
			c1.4,5.1,6.2,9.5,11.7,7.4c5.5-2.1,11.7-8,11.3-14.3c-0.1-1.9-3.1-1.9-3,0c0.4,7.7-13.1,16.8-16.9,6.9c-2.2-5.8-1.1-14-1.3-20.2
			c-0.4-14.2-0.8-28.3-1.1-42.5c-0.1-2-2.8-1.9-3,0c-0.1,1-0.2,2-0.3,3C259.8,128.6,262.8,128.6,263,126.7L263,126.7z"/>
	</g>
</g>
<g>
	<g>
		<path d="M250.9,173.9c10.2-2.2,20.2-5.2,29.9-9c1.8-0.7,1-3.6-0.8-2.9c-9.7,3.8-19.7,6.9-29.9,9
			C248.2,171.4,249,174.3,250.9,173.9L250.9,173.9z"/>
	</g>
</g>
<g>
	<g>
		<path d="M290.3,112.4c-1-0.6-2-1.1-3-1.7c-1.1-0.6-2.7,0.4-2.2,1.7c7.5,21.8,4.6,45.1,7.4,67.6c1,0,2,0,3,0
			c-0.7-5.1,0.2-10,2.1-14.8c1.4-3.5,3.7-9.8,6.6-12.2c0.7-2.2,2-2.2,3.9,0c0.3,1.1,0.7,2.3,0.9,3.4c0.4,1.7,0.8,3.5,1.1,5.2
			c0.8,4.9,1.7,10.6,0.3,15.5c-0.2,0.7,0.1,1.3,0.7,1.7c0.1,0.1,0.3,0.2,0.4,0.3c0.4,0.3,1.1,0.3,1.5,0c0.2-0.1,0.3-0.2,0.5-0.3
			c0.8-0.5,1-1.7,0.3-2.4c-0.1-0.1-0.1-0.1-0.2-0.2c-1.4-1.3-3.6,0.8-2.1,2.1c0.1,0.1,0.1,0.1,0.2,0.2c0.1-0.8,0.2-1.6,0.3-2.4
			c0.2,0,0.4,0,0.7,0c0.2,0.6,0.5,1.1,0.7,1.7c1.7-5.9,0.6-12.8-0.6-18.8c-0.6-3.2-1.6-11.9-6.6-11.6c-1.7,0.1-2.6,1.2-3.5,2.5
			c-2.3,3.1-4.1,6.6-5.8,10c-3.1,6.3-5.1,12.9-4.2,20c0.2,1.9,3.2,1.9,3,0c-2.9-22.8,0.1-46.4-7.5-68.4c-0.7,0.6-1.5,1.1-2.2,1.7
			c1,0.6,2,1.1,3,1.7C290.5,115.9,292,113.3,290.3,112.4L290.3,112.4z"/>
	</g>
</g>
<g>
	<g>
		<path d="M323.8,163c3.8,9.8,13.5-6,14.9-9.7c1.2-3.2,2.5-7.9-1.3-9.8c-3.2-1.6-6.5,0.3-8.4,3c-3.2,4.6-4.6,11-5.4,16.4
			c-0.6,4.3-1.6,10.4,1.1,14.2c5.9,8.7,21.1-2.1,26.8-5.8c1.6-1.1,0.1-3.7-1.5-2.6c-4.5,3-9.3,6-14.4,7.7c-4.4,1.5-9,0.7-9.4-5
			c-0.2-2.6,0.1-5.3,0.5-7.9c0.6-4.5,1.9-13.7,6.1-16.2c1.1-1.8,2-1.7,2.8,0.4c1.3,0.6,1.7,1.5,1.2,2.5c0,1.5-1.2,3.6-1.9,4.9
			c-0.5,0.9-6.8,10.1-8,7.2C326,160.4,323.1,161.2,323.8,163L323.8,163z"/>
	</g>
</g>
<g>
	<g>
		<path d="M211.2,221.7c-0.5,18.1-2.4,36-5.7,53.8c-0.3,1.7,1.7,2.6,2.7,1.2c0.7-1,1.4-2,2.1-2.9c1.1-1.6-1.5-3.1-2.6-1.5
			c-0.7,1-1.4,2-2.1,2.9c0.9,0.4,1.8,0.8,2.7,1.2c3.4-18,5.3-36.3,5.8-54.6C214.2,219.8,211.2,219.8,211.2,221.7L211.2,221.7z"/>
	</g>
</g>
<g>
	<g>
		<path d="M209.4,220.4c3.8,7.1,7.6,14.2,11.4,21.3c0.6,1.1,2,0.9,2.6,0c6.3-8.9,8.3-19.6,6-30.3c-0.4-1.9-3.2-1.1-2.9,0.8
			c2.9,15.8,8.2,30.9,15.7,45.2c0.7,1.3,2.8,0.7,2.8-0.8c0-2.9-1.2-4.9-3.6-6.3c-1.7-1-3.2,1.6-1.5,2.6c0.7,1.2,1.4,2.5,2.2,3.7
			c0.9-0.3,1.9-0.5,2.8-0.8c-7.3-14-12.5-28.9-15.4-44.4c-1,0.3-1.9,0.5-2.9,0.8c2.1,9.9,0.1,19.7-5.7,27.9c0.9,0,1.7,0,2.6,0
			c-3.8-7.1-7.6-14.2-11.4-21.3C211.1,217.2,208.5,218.7,209.4,220.4L209.4,220.4z"/>
	</g>
</g>
<g>
	<g>
		<path d="M259.7,203.7c-0.8,19.9-1.7,39.7-2.5,59.6c1-0.1,2-0.3,2.9-0.4c-0.3-1.2-0.6-2.4-0.9-3.6c-0.5-1.9-3.3-1.1-2.9,0.8
			c0.3,1.2,0.6,2.4,0.9,3.6c0.4,1.7,2.9,1.3,2.9-0.4c0.8-19.9,1.7-39.7,2.5-59.6C262.8,201.7,259.8,201.7,259.7,203.7L259.7,203.7z"
			/>
	</g>
</g>
<g>
	<g>
		<path d="M264,220.8c-1.4-2.2-1.3-4.2,0.3-6c-0.9,0-1.7,0-2.6,0c6.8,15.5,13.7,30.9,20.5,46.4c0.7,1.6,3.2,0.4,2.7-1.2
			c-0.6-1.9-1.1-3.9-1.7-5.8c-0.5-1.9-3.4-1.1-2.9,0.8c0.6,1.9,1.1,3.9,1.7,5.8c0.9-0.4,1.8-0.8,2.7-1.2
			c-6.8-15.5-13.7-30.9-20.5-46.4c-0.5-1.1-2-0.8-2.6,0c-2.1,2.9-2.1,6-0.3,9C262.4,224,265,222.5,264,220.8L264,220.8z"/>
	</g>
</g>
<g>
	<g>
		<path d="M257.3,248.4c0,0.1,0,0.2,0.1,0.3c0.3-0.6,0.7-1.2,1-1.8c0.2,0.1,0.4,0.2,0.7,0.3c0.1,0.6,0.2,1.2,0.2,1.8
			c1-1.8,10.6-2.9,12.4-3.4c4-1,8.1-1.9,12.1-2.7c1.9-0.4,1.1-3.3-0.8-2.9c-5.6,1.2-11.2,2.5-16.8,3.9c-2.8,0.7-8,0.8-9.6,3.6
			c-0.3,0.5-0.3,1.4,0.2,1.8c0.8,0.6,1.3,0.9,2.3,0.5c0.8-0.3,1.2-1,1-1.8c0-0.1,0-0.2-0.1-0.3C259.8,245.7,256.9,246.5,257.3,248.4
			L257.3,248.4z"/>
	</g>
</g>
<g>
	<g>
		<path d="M290.6,213.7c6.2,13.8,9.4,28.6,9.8,43.7c1-0.1,2-0.3,2.9-0.4c-0.3-1.6-0.7-3.2-1-4.8c-0.4-1.9-3.3-1.1-2.9,0.8
			c0.3,1.6,0.7,3.2,1,4.8c0.4,1.7,3,1.3,2.9-0.4c-0.4-15.7-3.8-30.9-10.2-45.2C292.4,210.5,289.8,212,290.6,213.7L290.6,213.7z"/>
	</g>
</g>
<g>
	<g>
		<path d="M294,213.4c7.8-4.3,16.4-5.6,25.1-4c1.9,0.4,2.7-2.5,0.8-2.9c-9.5-1.8-18.9-0.4-27.4,4.3
			C290.8,211.8,292.3,214.4,294,213.4L294,213.4z"/>
	</g>
</g>
<g>
	<g>
		<path d="M301.1,235.4c2.7,0.8,5.5,1,8.3,0.5c1.5-0.2,3-0.7,4.4-1.3c1.3-0.5,2.8-2,4.2-2c-0.4-0.2-0.9-0.5-1.3-0.7
			c0-0.1,0-0.2,0-0.3c0.4-0.2,0.9-0.5,1.3-0.7c-0.1,0-0.2,0-0.4,0c-1.9-0.3-1.9,2.8,0,3c0.1,0,0.2,0,0.4,0c0.5,0.1,1-0.3,1.3-0.7
			c1.6-2.2-0.7-3.9-2.8-3.3c-2.2,0.6-3.9,2.4-6.3,2.9c-2.8,0.7-5.5,0.5-8.2-0.2C300,232,299.2,234.9,301.1,235.4L301.1,235.4z"/>
	</g>
</g>
<g>
	<g>
		<path d="M341.8,197.1c-11.2-1-2.3,17.8-1,21.9c4.5,14.1,8,28.9,5,43.7c-0.4,1.9,2.4,2.7,2.9,0.8c0.5-2.1,0.2-3.2-1.1-4.8
			c-1.2-1.5-3.3,0.6-2.1,2.1c0.1,0.6,0.2,1.3,0.4,1.9c1,0.3,1.9,0.5,2.9,0.8c2-10,1.4-20-0.8-29.9c-1.1-5.2-2.6-10.3-4.2-15.3
			c-0.9-2.7-1.8-5.3-2.7-8c-0.6-1.6-4.5-10.6,0.7-10.1C343.7,200.3,343.7,197.2,341.8,197.1L341.8,197.1z"/>
	</g>
</g>
<g>
	<g>
		<path d="M358.9,197.2c3.7,10.1,6.2,20.5,7.1,31.2c0.4,4.8,0.5,9.6,0.3,14.4c-0.1,3.5-1.9,8.6,0,11.7c0.3,0.4,0.8,0.8,1.3,0.7
			c1.2-0.1,1.6-0.3,2.3-1.3c0.3-0.4,0.3-1.1,0-1.5c-0.1-0.1-0.2-0.3-0.3-0.4c-1-1.6-3.6-0.1-2.6,1.5c0.4,0.6,1.7-3.3,1.8-3.5
			c0.2-1.1,0.2-2.4,0.3-3.6c0.2-2.4,0.3-4.8,0.3-7.2c0.1-5.1-0.2-10.2-0.8-15.3c-1.1-9.4-3.4-18.6-6.7-27.5
			C361.1,194.6,358.2,195.4,358.9,197.2L358.9,197.2z"/>
	</g>
</g>
<g>
	<g>
		<path d="M367.1,204.8c-1-1.8-1.6-3.5-2-5.5c-0.9,0.4-1.8,0.8-2.7,1.2c9.6,13.8,19.2,27.6,28.8,41.4c1.1,1.6,3.7,0.1,2.6-1.5
			c-9.6-13.8-19.2-27.6-28.8-41.4c-1-1.4-3.1-0.5-2.7,1.2c0.4,2.3,1.2,4.2,2.3,6.2C365.4,208,368,206.5,367.1,204.8L367.1,204.8z"/>
	</g>
</g>
<g>
	<g>
		<path d="M364,239.4c10.1,0,20.1,0,30.2,0c1.9,0,1.9-3,0-3c-10.1,0-20.1,0-30.2,0C362.1,236.4,362.1,239.4,364,239.4L364,239.4z"/>
	</g>
</g>
<g>
	<g>
		<path d="M404.7,238.5c-0.8,2.4-0.8,5.5,1.3,7.4c1.7,1.5,4.6,1.9,6.3,0.1c1.4-1.5,1.4-4.1,0-5.5c-1.8-1.9-4.9-0.7-5,1.9
			c0,0.5,0.3,1.1,0.7,1.3c2.9,1.5,6.8-0.8,6.4-4.2c-0.1-0.7-0.4-1.3-1.1-1.4c-2.5-0.7-4.9,0-6.9,1.7c-1.5,1.3,0.7,3.4,2.1,2.1
			c1.1-1,2.5-1.3,3.9-0.9c-0.4-0.5-0.7-1-1.1-1.4c0.1,1-0.9,2.1-1.9,1.6c0.2,0.4,0.5,0.9,0.7,1.3c-0.4,0.1-0.4,0.1-0.1,0.2
			c0,0.1,0.1,0.1,0.1,0.2c0,0.2,0.1,0.4,0.1,0.6c-0.1,0.7-0.7,0.9-1.4,0.8c-2.3-0.4-2-3.2-1.5-4.9
			C408.2,237.5,405.3,236.7,404.7,238.5L404.7,238.5z"/>
	</g>
</g>
<g>
	<g>
		<path d="M392.3,184.3c0,0.1-0.1,0.1-0.1,0.2c0.7-0.2,1.4-0.4,2.1-0.5c-0.1-0.1-0.2-0.2-0.3-0.3c0.2,0.6,0.5,1.1,0.7,1.7
			c0-0.1,0.1-0.2,0.1-0.3c-0.6,0.3-1.2,0.7-1.8,1c1.2,0.4,2.8,7.9,3.2,8.9c1,3,1.9,6,2.9,9c1.9,6,3.6,12,5.3,18.1
			c0.5,1.9,3.4,1.1,2.9-0.8c-2.2-7.9-4.5-15.7-7-23.5c-1.2-3.6-2.3-7.2-3.6-10.7c-0.7-1.9-0.9-3.3-2.9-3.9c-0.8-0.2-1.6,0.3-1.8,1
			c0,0.1-0.1,0.2-0.1,0.3c-0.2,0.7,0.2,1.3,0.7,1.7c0.1,0.1,0.2,0.2,0.3,0.3c0.6,0.5,1.7,0.1,2.1-0.5c0-0.1,0.1-0.1,0.1-0.2
			C395.7,184.1,393.1,182.5,392.3,184.3L392.3,184.3z"/>
	</g>
</g>
<g>
	<g>
		<path d="M431.6,238.7c1.7-1.8,1.7-4.6-0.1-6.3c-0.6-0.5-1.5-0.6-2.1,0c-2,2.1-4,4.4-3.8,7.5c0.1,2.5,1.7,4.8,4.3,5
			c2.2,0.2,4.4-1.3,4.3-3.7c-0.1-2.2-2.3-4.1-4.5-3.3c-1.8,0.6-1,3.5,0.8,2.9c0.7-0.2,1,0.9,0.1,1.1c-1.1,0.3-1.8-0.7-2-1.6
			c-0.5-2.2,1.6-4.3,2.9-5.7c-0.7,0-1.4,0-2.1,0c0.6,0.6,0.8,1.4,0.1,2.1C428.2,238,430.3,240.1,431.6,238.7L431.6,238.7z"/>
	</g>
</g>
<g>
	<g>
		<path d="M414.5,182c2.9,12,5.8,24,8.7,36.1c0.5,1.9,3.3,1.1,2.9-0.8c-2.9-12-5.8-24-8.7-36.1C417,179.3,414.1,180.1,414.5,182
			L414.5,182z"/>
	</g>
</g>
<g>
	<g>
		<path d="M449.9,237.2c1.9,2.9,5.6-1.1,3.4-3.2c-1.2-1.2-3.1-0.6-4.1,0.6c-1.5,1.8-0.6,3.7-1,5.7c-0.2,0.9,0.4,2,1.4,1.9
			c4.2-0.3,7-5.5,4.4-9.1c-0.4-0.6-1.3-1-2.1-0.5c-1.8,1.2-2.8,3-2.9,5.2c-0.1,1.9,2.9,1.9,3,0c0.1-1,0.5-2,1.4-2.6
			c-0.7-0.2-1.4-0.4-2.1-0.5c1.1,1.6,0.3,4.4-1.8,4.6c0.5,0.6,1,1.3,1.4,1.9c0.3-1.1,0.1-2.2,0.2-3.3c0-0.2,0-0.4,0-0.6
			c0.1-0.2,0.2-0.5,0.3-0.6c-0.5-0.3-0.7-0.6-0.6-1c-0.2,0.5,0.3,0.6,1.5,0.3C451.4,234.1,448.8,235.6,449.9,237.2L449.9,237.2z"/>
	</g>
</g>
<g>
	<g>
		<path d="M438.4,177.3c0.1-0.1,0.1-0.2,0.2-0.4c0.3-0.6,0.3-1.3-0.2-1.8c-0.6-0.6-1-0.9-1.9-0.8c-0.7,0.1-1.2,0.4-1.4,1.1
			c-0.9,2.5,1,5.6,1.8,8c1.5,4.3,3,8.6,4.5,12.9c3,8.6,6,17.2,9,25.7c0.6,1.8,3.5,1,2.9-0.8c-2.7-7.7-5.4-15.3-8-23
			c-1.3-3.7-2.6-7.4-3.9-11c-0.8-2.2-4.2-8.8-3.5-11c-0.5,0.4-1,0.7-1.4,1.1c-0.1,0-0.1-0.1-0.2-0.1c-0.1-0.6-0.2-1.2-0.2-1.8
			c-0.1,0.1-0.1,0.2-0.2,0.4C435,177.5,437.6,179,438.4,177.3L438.4,177.3z"/>
	</g>
</g>
</svg>
