<?xml version="1.0" encoding="utf-8"?>
<!-- Generator: Adobe Illustrator 22.1.0, SVG Export Plug-In . SVG Version: 6.00 Build 0)  -->
<svg version="1.1" id="Слой_1" xmlns="http://www.w3.org/2000/svg" xmlns:xlink="http://www.w3.org/1999/xlink" x="0px" y="0px"
	 viewBox="0 0 59.8 91.9" style="enable-background:new 0 0 59.8 91.9;" xml:space="preserve">
<style type="text/css">
	.st0{fill:none;stroke:#000000;stroke-miterlimit:10;}
</style>
<path class="st0" d="M7.4,41.6c0,0-6.9,13-2.1,22.4s8.1,12.1,8.1,12.1v10.3c0,0.6,0.4,1.2,1,1.4c2.8,1,10.5,3.6,15,3.5
	c4.9-0.1,11.9-0.9,15.8-2.4c0.8-0.3,1.3-1,1.3-1.9v-9.5c0,0,11.1-11.8,11.8-20.6c-0.9-7.4-7.8-15.4-7.8-15.4V16.4
	c0,0,0.6-16.4-20.9-15.9C14.7,0.9,9.7,8.2,8,12.6c-0.6,1.5-0.8,3.1-0.8,4.7L7.4,41.6z"/>
<path class="st0" d="M30.7,43.8c-1.1-0.3-2.2,0-3.1,0.7c-1.7,1.5-3.6,2.7-4.3,8.8c-0.8,6.4,1.3,10.8,5.8,11.4s6.5-3.4,6.8-4.6
	s0.5-8.9-1-11.9C33.1,44.9,33.4,44.5,30.7,43.8z"/>
<g>
	<path d="M20.9,78.1c0.2-0.8,0.6-1.6,1-2.3c0.6-0.6,1.3-1.1,2-1.6c1.4-0.9,3.1-1.3,4.7-1.5c1.7-0.2,3.3-0.1,4.9,0.2
		c0.8,0.2,1.6,0.3,2.4,0.5c0.7,0.4,1.5,0.8,2.2,1.2c-0.8,0-1.6-0.1-2.4-0.2c-0.8-0.2-1.5-0.3-2.3-0.5c-1.5-0.2-3.1-0.4-4.6-0.2
		c-1.5,0.2-3,0.6-4.3,1.4c-0.6,0.4-1.3,0.8-1.8,1.4C22.1,77,21.5,77.5,20.9,78.1z"/>
</g>
<path class="st0" d="M10.9,41.3c0,0-0.6,4.1,1.9,7s9.4,1.4,10.3-0.3c0.8-1.7,1.2-3.7,1.1-4.6S11.5,39.5,10.9,41.3z"/>
<path class="st0" d="M35.4,43.2c0,0,0.5,4.9,4.1,5.8s7.1-0.6,8.4-3s0.5-5.2,0.5-5.2S37.8,41.6,35.4,43.2z"/>
<path d="M13.5,66.5v6.2l12.4-6.9C25.9,65.8,16.3,65.4,13.5,66.5z"/>
<path d="M34.9,66.2c0,0,10.9,6.2,11.3,6.9s0-6.1,0-6.1S37.1,65.8,34.9,66.2z"/>
<path class="st0" d="M7.4,34.9c0,0-6.2-2.7-6.6,0.3S-0.1,43.3,5,48"/>
<g>
	<path d="M3.6,41.1c-0.3-0.3-0.5-0.6-0.7-1c-0.2-0.4-0.3-0.7-0.3-1.2c0-0.2,0-0.5,0.2-0.7c0-0.1,0.2-0.3,0.3-0.4
		c0.2-0.1,0.4-0.2,0.5-0.1c0.6,0.1,0.8,0.4,1.1,0.7c-0.4,0-0.8-0.1-1,0c-0.1,0,0,0.1,0,0c0,0,0,0,0,0.1c0,0.1,0,0.2,0,0.4
		C3.6,39.6,3.7,40.3,3.6,41.1z"/>
</g>
<path class="st0" d="M56.3,50.6c0,0,3.6-5.4,2.8-11s-6.1-6.2-8.2-1.5"/>
<g>
	<path d="M54.7,40c0.8-0.1,1.5,0.5,1.8,1.1c0.3,0.7,0.4,1.5-0.1,2.1c-0.2-0.3-0.3-0.6-0.5-0.9c-0.1-0.3-0.2-0.5-0.4-0.8
		C55.3,41.1,55.1,40.6,54.7,40z"/>
</g>
<path d="M6.9,39.3c3.7,1.2,16.4,5.4,19.1,4.4c1.4-1.3,1.3-4.4,1.3-4.4s0.9-3.3-2.9-4.4c-3.8-1.1-14.3-4.7-16.9-5
	c-2.2-0.3-2.9,4.9-2.1,7.8C5.5,38.4,6.1,39,6.9,39.3z"/>
<path d="M32.9,36.4c0,0-0.7,6.2,0.9,6.9c1.7,0.7,20.7-0.7,21.3-4.7s0-8.5-1.8-8.7C51.5,29.7,33.1,34.7,32.9,36.4z"/>
<path d="M16.7,42.3c0,0,0.2,4.2,1.8,3.6s1.8-2.4,1.6-3.5C20,41.3,16.5,40.7,16.7,42.3z"/>
<path d="M40.6,42.9c0,0,0.1,3,2.4,2.4s2.3-2.4,1.8-4S40,41,40.6,42.9z"/>
</svg>
