<?xml version="1.0" encoding="utf-8"?>
<!-- Generator: Adobe Illustrator 22.1.0, SVG Export Plug-In . SVG Version: 6.00 Build 0)  -->
<svg version="1.1" id="Слой_1" xmlns="http://www.w3.org/2000/svg" xmlns:xlink="http://www.w3.org/1999/xlink" x="0px" y="0px"
	 viewBox="0 0 75 69.5" style="enable-background:new 0 0 75 69.5;" xml:space="preserve">
<style type="text/css">
	.st0{fill:none;stroke:#000000;stroke-miterlimit:10;}
</style>
<path class="st0" d="M19.1,10.8c-0.1,0-0.2,0-0.3,0c-3.8,0-7.6-1.2-10.8,0.8s-5.2,5.7-5.2,9.5c0,4.3,2.4,8.5,2.2,12.8
	c-0.1,3-1.6,6-4,7.9c3.8,1.2,7.7,2,11.6,1.3c6-1.1,11.1-6.2,12.1-12.2c0.2-1.2,0.3-2.4,0.8-3.5s1.5-2.1,2.7-2.1c0.5,0,1,0.2,1.6,0.4
	c4.1,1.3,8.6-0.4,12.5-2.2c3.6-1.7,7.4-3.8,8.8-7.5c0.9-2.2,0.8-4.7,0.6-7.1c-0.2,0.9-1.4,1-2.2,0.8c-2.7-0.4-5.3-1.6-7.5-3.2
	c-2.2-1.7-4.1-4-6.7-5.1c-1.6-0.7-3.4-0.8-5.1-0.8c-1.8,0-3.7,0.1-5.4,0.8C21.2,2.8,19.1,7,18.7,11C18.5,10.9,19.3,10.8,19.1,10.8z"
	/>
<path class="st0" d="M29.8,39.5c0.2,1.2,0.5,2.4,0.8,3.6c0.2,0.8,0.5,1.7,1,2.4c0.4,0.5,1,0.9,1.5,0.6c0.2-0.1,0.3-0.3,0.4-0.6
	c0.5-1.1,0.4-2.3,0.4-3.5c0.5,1.1,1.2,2.3,2.3,2.7c0.4,0.1,0.8,0.2,1.1,0c0.2-0.1,0.4-0.3,0.5-0.6c0.3-0.6,0.3-1.2,0.3-1.9
	c0-1.4-0.3-2.7-0.7-4c-0.1,0.1-0.1,0.2-0.1,0.4"/>
<path class="st0" d="M54.9,38.4c-0.8-0.3-1.7-0.1-2.4,0.4C52.2,39,52,39.3,52,39.7c0,0.4,0.1,0.7,0.4,1c0.4,0.5,0.9,0.9,1.6,1.1
	c0.5,0.2,1.1,0.2,1.6,0.5c0.5,0.3,0.8,0.8,0.9,1.3c0.1,0.4,0.1,0.8,0,1.1c-0.1,0.2-0.3,0.4-0.5,0.5c-0.5,0.4-1.2,0.7-1.8,0.8
	c-0.2,0.1-0.5,0.1-0.7,0.1c-0.2-0.1-0.5-0.2-0.5-0.5"/>
<path class="st0" d="M22.8,55.5c0.8,1.4,2.2,2.2,3.3,3.3c2.5,2.3,3.8,5.5,4.8,8.7c-1.8-1.7-2.8-4.1-2.7-6.5c0-0.3,0.1-0.6,0.2-0.9
	c0.2-0.2,0.4-0.3,0.6-0.4c1.7-0.6,3.8,0.2,5,1.6c1.2,1.4,1.9,3.2,2.5,4.9c0-0.3-0.2-0.6-0.4-0.7"/>
<path class="st0" d="M39.6,61.1c-0.1,0.1-0.1,0.2-0.2,0.3c0.1,0.3,0.6,0.2,0.9,0c0.4-0.3,0.8-0.6,1.2-0.9c0.4-0.3,0.9-0.6,1.2-1
	s0.5-1,0.4-1.5c-0.1-0.3-0.2-0.5-0.5-0.7c-0.2-0.1-0.5-0.1-0.8-0.1c-0.8,0.1-1.7,0.5-2.2,1.1c-0.6,0.6-0.8,1.6-0.6,2.4
	c0.1,0.5,0.4,1,0.7,1.4c0.4,0.5,0.8,0.9,1.4,1.1c0.5,0.2,1.1,0.1,1.6,0c0.9-0.1,1.8-0.3,2.6-0.7c0.8-0.4,1.5-1,1.9-1.8
	c-0.3,0.2-0.7,0.5-1,0.7"/>
<path class="st0" d="M50.2,58.5c-0.1-0.1-0.3,0-0.4,0.1c0.6,2.3,0.7,4.8,0.3,7.1c-0.5-2.3-0.5-4.7,0.2-6.9c0.3,0.5,0.6,1,1,1.5
	c0.1,0.2,0.2,0.3,0.4,0.4c0.3,0.2,0.7,0.1,1,0c0.3-0.2,0.5-0.5,0.7-0.8"/>
<path class="st0" d="M57.6,63.8c-0.1,0.2,0.2,0.3,0.4,0.3c0.9-0.1,1.8-0.6,2.3-1.3c0.6-0.7,0.9-1.6,1.1-2.5c0.1-0.5,0.1-1.2-0.3-1.5
	c-0.5-0.5-1.4-0.1-1.9,0.5c-1.1,1.3-1.1,3.2-0.5,4.8c0.1,0.4,0.3,0.8,0.6,1.1c0.7,0.6,1.7,0.3,2.5-0.1c1.1-0.5,2.1-1.2,3.1-2
	c-0.1,0-0.1,0-0.2,0"/>
<path class="st0" d="M70.8,65.3c-0.6,0-1,0.6-0.8,1.2c0.2,0.5,0.8,0.8,1.4,0.7c0.6-0.1,1-0.6,1.1-1.2c0.1-0.4,0.1-1-0.3-1.2
	c-0.4-0.2-0.8,0-1.1,0.2c-0.3,0.2-0.5,0.4-0.6,0.7c-0.1,0.3-0.1,0.6,0.1,0.8"/>
<path class="st0" d="M72.7,51c0.1-0.3,0.3-0.5,0.6-0.5c0.2,0,0.4,0.2,0.5,0.4c0.8,1.5,0.9,3.2,0.7,4.9c-0.2,1.6-1.1,6.3-3.3,3.4
	C69.5,57.1,71.7,53.1,72.7,51z"/>
<path class="st0" d="M42.7,44.9c-0.3-0.6-0.4-1.2-0.6-1.8c0-0.2-0.1-0.4-0.1-0.6c0-0.2,0-0.4,0.1-0.6c0.2-0.6,0.4-1.2,0.8-1.7
	c0.4-0.6,0.9-1,1.6-1.3s1.4-0.1,1.9,0.3c0.2,0.2,0.4,0.4,0.5,0.7c0.5,0.9,1,1.8,1.3,2.8c0.1,0.3,0.2,0.7,0.2,1.1
	c0,0.3,0,0.5-0.1,0.8c0.1-0.9,0-1.8-0.6-2.5c-1.9,0.1-3.9,0.5-5.7,1.1"/>
</svg>
