<?xml version="1.0" encoding="utf-8"?>
<!-- Generator: Adobe Illustrator 22.1.0, SVG Export Plug-In . SVG Version: 6.00 Build 0)  -->
<svg version="1.1" id="Слой_1" xmlns="http://www.w3.org/2000/svg" xmlns:xlink="http://www.w3.org/1999/xlink" x="0px" y="0px"
	 viewBox="0 0 287.1 126.3" style="enable-background:new 0 0 287.1 126.3;" xml:space="preserve">
<g>
	<g>
		<path d="M30.1,5c-0.9,19.4-1.9,38.7-2.8,58.1c-0.5,9.5-0.9,19-1.4,28.5c-0.2,4.6-0.4,9.2-0.7,13.8c-0.1,2.6-0.3,5.2-0.4,7.9
			c-0.1,1.3-0.1,2.6-0.2,3.9c-0.5,1.7,0,3.2,1.7,4.2c-0.2,0.6-0.5,1.1-0.7,1.7c0.1-0.1,0.2-0.1,0.3-0.2c1.6-1.1,0.1-3.7-1.5-2.6
			c-0.1,0.1-0.2,0.1-0.3,0.2c-0.6,0.4-0.9,1-0.7,1.7c0.3,1,0.6,1.3,1.5,1.6c0.5,0.2,1.1,0,1.5-0.4c1.9-2,1.2-5.7,1.3-8.2
			c0.3-5.2,0.5-10.5,0.8-15.7C29,89,29.5,78.5,30,68c1-21,2-42,3-63C33.2,3.1,30.2,3.1,30.1,5L30.1,5z"/>
	</g>
</g>
<g>
	<g>
		<path d="M32.8,6.2c14.2-9.3,38.8,3.3,38.9,20.4c0.1,8.8-5.6,19.3-14.3,22.4c-8.6,3-19.4-1.6-26.5-6.4c0.1,0.8,0.2,1.6,0.3,2.4
			c0.5-0.4,0.9-0.9,1.4-1.3c1.4-1.3-0.7-3.4-2.1-2.1c-0.5,0.4-0.9,0.9-1.4,1.3c-0.7,0.7-0.5,1.8,0.3,2.4c8.3,5.6,20.9,10.4,30.7,5.9
			C69,47,74.8,36.2,74.7,26.6C74.6,7.3,47.4-7,31.3,3.6C29.7,4.7,31.2,7.3,32.8,6.2L32.8,6.2z"/>
	</g>
</g>
<g>
	<g>
		<path d="M84.2,4.6c-1.1,33.7-4,67.3-8.8,100.7c-0.6,3.9-1.3,7.7-1.7,11.6c-0.3,2.1-0.6,4.3,0.5,6.2c2.4,4.1,9.7,3,13.5,3.1
			c7.7,0.2,14.9-1.2,22.4-2.5c8.4-1.4,16.7-1.7,25.2-0.9c1.9,0.2,1.9-2.8,0-3c-7.1-0.7-14.1-0.7-21.1,0.2
			c-6.9,0.9-13.6,2.7-20.6,3.1c-3.6,0.2-7.2,0-10.9-0.2c-2.3-0.1-5.1-0.6-6.3-3c-0.8-1.4,0.5-4.5,0.8-6.2c1-6.9,2-13.8,2.9-20.7
			c3.8-29.4,6.2-58.9,7.1-88.5C87.3,2.7,84.3,2.7,84.2,4.6L84.2,4.6z"/>
	</g>
</g>
<g>
	<g>
		<path d="M82.6,62.2c4.5,0.3,8.7-0.9,13.2-1.4c4.5-0.5,9-0.3,13.5-0.3c9.1,0.1,18.3,0.2,27.4,0.3c1.9,0,1.9-3,0-3
			c-9.1-0.1-18.3-0.2-27.4-0.3c-4.2,0-8.4-0.2-12.6,0.2c-4.7,0.4-9.3,1.8-14,1.5C80.7,59.1,80.7,62.1,82.6,62.2L82.6,62.2z"/>
	</g>
</g>
<g>
	<g>
		<path d="M85.8,6c8.1-2.6,17-0.9,25.3-1c8.3-0.1,16.5-0.7,24.8-1.3c1.9-0.1,1.9-2.9,0-3c-1.1-0.1-2.1-0.1-3.2-0.2
			c-1.9-0.1-1.9,2.9,0,3c1.1,0.1,2.1,0.1,3.2,0.2c0-1,0-2,0-3C127,1.3,118.1,2,109.1,2C101,2.1,92.8,0.7,85,3.1
			C83.1,3.7,83.9,6.6,85.8,6L85.8,6z"/>
	</g>
</g>
<g>
	<g>
		<path d="M194.5,30.1c0.6-8.3-2.1-29-14.5-27.4c-12.1,1.5-15.5,19.7-18.3,29c-4.4,14.9-7.5,30.5-7.3,46.1c0.1,7.3,1,14.7,2.7,21.8
			c1.4,5.6,3.4,11.3,8.1,14.9c10.2,7.7,24.4,2,27.4-10.1c0.5-1.9-2.4-2.7-2.9-0.8c-1.8,7.1-8.1,12.2-15.6,11.3
			c-8-1-11.8-7.4-13.8-14.5c-3.8-14-3.8-28.8-1.6-43c2-13.1,5.5-26.2,10.1-38.5c2.1-5.5,8.7-18.4,16.2-11.4
			c5.6,5.2,6.8,15.5,6.2,22.7C191.4,32.1,194.4,32,194.5,30.1L194.5,30.1z"/>
	</g>
</g>
<g>
	<g>
		<path d="M209.6,3.7c0.8,19.1,1.1,38.2,0.8,57.3c-0.2,9.2-0.5,18.4-0.9,27.7c-0.2,4.6-0.5,9.2-0.8,13.8c-0.2,2.6-0.3,5.3-0.5,7.9
			c0,0.7-0.2,10.4,0.7,9.6c1.5-1.3-0.7-3.4-2.1-2.1c-0.1,0.1-0.2,0.2-0.3,0.3c-0.4,0.3-0.6,1-0.4,1.5c0.4,1.1,0.7,1.4,1.8,1.8
			c0.5,0.2,1.1,0,1.5-0.4c2.1-2.2,1.6-5.9,1.8-8.7c0.4-5.3,0.7-10.5,1-15.8c0.6-10.2,1-20.4,1.2-30.6c0.5-20.7,0.2-41.5-0.7-62.2
			C212.5,1.8,209.5,1.8,209.6,3.7L209.6,3.7z"/>
	</g>
</g>
<g>
	<g>
		<path d="M214.2,69.6c9.9-13,19.9-26,29.7-39c4.6-6.1,9.2-12.3,13.3-18.7c1.2-1.8,3.2-6.3-1-5.9c-1.9,0.2-1.9,3.2,0,3
			c-1.6,0.2-3.6,4.6-4.6,6c-1.7,2.5-3.5,5-5.3,7.5c-3.6,5-7.4,9.9-11.1,14.8c-7.8,10.3-15.7,20.6-23.5,30.9
			C210.4,69.6,213,71.1,214.2,69.6L214.2,69.6z"/>
	</g>
</g>
<g>
	<g>
		<path d="M213.6,70.1c6.6,0.7,10.7,6.9,15.5,10.7c5.7,4.5,12.4,7.3,18.8,10.8c12.2,6.8,22.7,15.9,31.5,26.7
			c0.7-0.7,1.4-1.4,2.1-2.1c-0.6-0.6-1.2-1.1-1.7-1.7c-1.4-1.3-3.5,0.8-2.1,2.1c0.6,0.6,1.2,1.1,1.7,1.7c1.4,1.4,3.3-0.6,2.1-2.1
			c-9.2-11.5-20.6-21-33.6-28c-7.2-3.9-14.4-7.2-20.4-12.8c-4.2-3.9-8-7.7-13.9-8.3C211.7,66.9,211.7,69.9,213.6,70.1L213.6,70.1z"
			/>
	</g>
</g>
<g>
	<g>
		<path d="M1.1,42.5c8.4,1.7,16.7,0.8,25.1,0.2c9.5-0.7,19-0.1,28.4,0.8c18.6,1.8,37.1,3.9,55.6,6c37.2,4.2,74.4,9.1,111.4,15.3
			c10.3,1.7,20.6,3.6,30.9,5.5c5.1,1,10.3,2,15.4,3c1.9,0.4,16.1,4.5,17,3c1-1.7-1.6-3.2-2.6-1.5c-1.8,2.9,2.2,6.5,4.2,3.3
			c3.6-5.7-12.5-6.6-14.9-7.1c-21.4-4.4-43-8.3-64.7-11.7c-43.1-6.8-86.5-11.9-129.9-16.5c-12-1.3-24.1-2.9-36.2-3.4
			c-12.9-0.5-26.2,2.7-39,0.1C0,39.2-0.8,42.1,1.1,42.5L1.1,42.5z"/>
	</g>
</g>
</svg>
