<?xml version="1.0" encoding="utf-8"?>
<!-- Generator: Adobe Illustrator 22.1.0, SVG Export Plug-In . SVG Version: 6.00 Build 0)  -->
<svg version="1.1" id="Слой_1" xmlns="http://www.w3.org/2000/svg" xmlns:xlink="http://www.w3.org/1999/xlink" x="0px" y="0px"
	 viewBox="0 0 54 63.3" style="enable-background:new 0 0 54 63.3;" xml:space="preserve">
<style type="text/css">
	.st0{fill:none;stroke:#000000;stroke-miterlimit:10;}
</style>
<path class="st0" d="M0.6,31c0,0,3.6,44.3,38.7,28.4c3-1.4,5.7-3.4,7.7-6.1c17.6-23.1-6.5-50.2-6.5-50.2s1.9,23.1-0.1,29.9
	c2.9,4.9,3.1,16.6,3.1,16.6l-7.4-10.3c0,0-7.9,6.9-10.9,7.6c2.4,4.4,5.5,10.4,5.5,10.4S10.3,45,0.6,31z"/>
<path d="M6,12.4c0,0-1.2,4.3,4.2,14.9s8,12.4,9.8,12s-2-10.8-3.8-15.6S7.4,8.7,6,12.4z"/>
<path d="M17,2.3c0,0,3.1,11.3,7.5,16.7s8.6,10.7,11.1,9c2.5-1.7-2.4-11.6-4.9-14.9S17-4.4,17,2.3z"/>
</svg>
