<?xml version="1.0" encoding="utf-8"?>
<!-- Generator: Adobe Illustrator 22.1.0, SVG Export Plug-In . SVG Version: 6.00 Build 0)  -->
<svg version="1.1" id="Слой_1" xmlns="http://www.w3.org/2000/svg" xmlns:xlink="http://www.w3.org/1999/xlink" x="0px" y="0px"
	 viewBox="0 0 467.9 485.8" style="enable-background:new 0 0 467.9 485.8;" xml:space="preserve">
<style type="text/css">
	.st0{fill:none;stroke:#000000;stroke-width:9;stroke-miterlimit:10;}
</style>
<path class="st0" d="M67.6,242.9c0,0-60.7,32-52,83.3s103,95,145.3,104.7c54.9,12.5,137.1,12.8,200.7-42
	c64.2-55.3-5.3-105.3-5.3-105.3S221.6,292.9,67.6,242.9z"/>
<path class="st0" d="M356.2,283.6c0,0,48.7-14.7,59.3-28c-22-12.7-44-13.3-88.7-38.7c-8.7-38,72.7-145.3,81.3-152.7
	c8.7-7.3-151.3-94-333.3-44.7c26.7,33.3,54.7,126.7,46.7,147.3s-59.3,39.3-116,32c4,21.3,62,44,62,44"/>
<path class="st0" d="M103.8,184.3c0,0,52.4,56,223.1,32.6"/>
<path class="st0" d="M122,144.1c0,0,133.1-9,216.4,25.9"/>
<path d="M133.6,279.6c0,0-16,10-17.3,27.3c-1.3,17.3-0.7,44.2,8.7,30.8s4-22.8,8.7-32.1C138.2,296.3,145,268.3,133.6,279.6z"/>
<path class="st0" d="M308.9,313.6l-72,16.7c0,0,57.3,21.3,65.3,31.3"/>
<path class="st0" d="M168.9,361.6c0,0-12,52,23.3,56.7s44.7-43.3,44.7-43.3S190.9,370.9,168.9,361.6z"/>
<path class="st0" d="M373.6,412.9c0,0,23.3-57.3,42-62c18.7-4.7,3.3,42.7,3.3,42.7s24-30.7,40-23.3s-14,43.3-32,48.3
	c30,9,30,29.7,24.7,37c-5.3,7.3-17.3,28.7-50.7,25.3c-33.3-3.3-53.3-8.7-65.3-36C323.6,417.6,355.6,404.9,373.6,412.9z"/>
<path class="st0" d="M362.2,432.5c0,0,25.2,8.9,27.9,0c2.7-8.9-4.6-17.2-16.6-19.5"/>
<path class="st0" d="M440.2,446.3c0,0-19.3,18-45.3,5.3c-26-12.7,14.7-34.7,32-33"/>
</svg>
